<?xml version="1.0" encoding="UTF-8"?>
<svg version="1.1" xmlns="http://www.w3.org/2000/svg" width="720" height="720">
<path d="M0 0 C237.6 0 475.2 0 720 0 C720 237.6 720 475.2 720 720 C482.4 720 244.8 720 0 720 C0 482.4 0 244.8 0 0 Z " fill="#000000" transform="translate(0,0)"/>
<path d="M0 0 C14.52 0 29.04 0 44 0 C65.10160846 96.33854115 65.10160846 96.33854115 71.12582397 124.19979858 C71.5821798 126.30999556 72.03922708 128.42004312 72.49697876 130.52993774 C73.11080004 133.36064812 73.72194341 136.19192049 74.33203125 139.0234375 C74.50597412 139.82391006 74.67991699 140.62438263 74.85913086 141.44911194 C76 146.7698314 76 146.7698314 76 149 C76.66 149 77.32 149 78 149 C78.21261475 147.99646484 78.42522949 146.99292969 78.64428711 145.95898438 C81.56940642 132.37250211 85.04607525 118.94349584 88.5625 105.5 C89.1867036 103.10382788 89.81064191 100.70758664 90.43432617 98.3112793 C94.65166252 82.11820101 98.89404874 65.9316304 103.14208984 49.74658203 C107.48821152 33.17968857 111.74762436 16.59123608 116 0 C127.88 0 139.76 0 152 0 C155.37480692 8.99948511 155.37480692 8.99948511 156.47045898 13.35180664 C156.7175914 14.32384537 156.96472382 15.29588409 157.21934509 16.29737854 C157.47567215 17.32459518 157.73199921 18.35181183 157.99609375 19.41015625 C158.2709108 20.49525986 158.54572784 21.58036346 158.82887268 22.698349 C159.70270854 26.15199858 160.57034645 29.60716719 161.4375 33.0625 C162.3023331 36.49251193 163.16847649 39.92218911 164.03541565 43.35166931 C164.57234585 45.47739998 165.10789421 47.60348042 165.64170837 49.72999573 C167.02439379 55.22187589 168.4483266 60.70028561 169.91577148 66.17016602 C171.97229162 73.84984059 173.93382957 81.5517435 175.88051224 89.25988388 C176.91868932 93.36574332 177.96371843 97.46986075 179.0078125 101.57421875 C180.32676063 106.75912753 181.64345883 111.94456892 182.95117188 117.13232422 C184.01856422 121.36594437 185.09381342 125.59749737 186.17454147 129.82773209 C186.58332084 131.43382775 186.9891808 133.04066936 187.3920784 134.64825058 C187.95132116 136.87800119 188.52054689 139.10496907 189.09228516 141.33154297 C189.41331207 142.59868134 189.73433899 143.8658197 190.06509399 145.1713562 C190.52787247 146.57153488 190.52787247 146.57153488 191 148 C191.66 148.33 192.32 148.66 193 149 C193.11104033 148.29046173 193.22208067 147.58092346 193.33648586 146.84988403 C194.599944 139.00271497 196.16775358 131.25404704 197.87329102 123.4921875 C198.15792512 122.18663408 198.44230054 120.88102423 198.72644043 119.57536316 C199.49024068 116.06913535 200.25765096 112.56370699 201.02579999 109.05842972 C201.83216242 105.37591007 202.63523445 101.69267287 203.43870544 98.00952148 C204.78588588 91.83616215 206.1352166 85.66327621 207.48608398 79.49072266 C209.39084452 70.78721988 211.29147232 62.08281831 213.19139206 53.37825775 C214.51032995 47.33623513 215.83025968 41.29442913 217.15037036 35.25266266 C217.4697841 33.79077012 217.78916908 32.3288713 218.10852551 30.86696625 C219.1567655 26.0686541 220.20615018 21.27059378 221.25610352 16.47265625 C221.52053757 15.26224167 221.78497162 14.05182709 222.05741882 12.80473328 C222.29991364 11.69749405 222.54240845 10.59025482 222.79225159 9.44946289 C223.1077564 8.00719078 223.1077564 8.00719078 223.42963505 6.53578186 C223.92132091 4.34979884 224.45657531 2.17369877 225 0 C239.52 0 254.04 0 269 0 C267.81801057 6.50094184 266.69519628 12.57846068 264.99829102 18.8918457 C264.80673652 19.60949632 264.61518202 20.32714693 264.41782284 21.06654453 C263.78394093 23.4374075 263.14389587 25.80656041 262.50390625 28.17578125 C262.04177487 29.90004394 261.58007697 31.62442286 261.11877441 33.34890747 C260.12539039 37.05950079 259.12942124 40.76938638 258.13137817 44.47872925 C255.71456884 53.46181256 253.31089297 62.44841449 250.90597343 71.43468666 C250.0534756 74.61965302 249.20045585 77.80447932 248.34742737 80.98930359 C244.01656656 97.1652841 239.71938068 113.35005272 235.4375 129.5390625 C235.12738417 130.71148939 234.81726833 131.88391628 234.49775505 133.09187126 C231.74563164 143.4978282 228.99568149 153.904359 226.24685669 164.31118774 C224.81820275 169.71993429 223.38873119 175.12846418 221.95875549 180.53686142 C221.1773488 183.49354072 220.39705963 186.45051343 219.61682129 189.40750122 C219.14833186 191.17980433 218.67978863 192.95209321 218.21118164 194.72436523 C217.9999595 195.52615865 217.78873735 196.32795206 217.57111454 197.15404224 C216.78260666 200.132422 215.97459201 203.07622397 215 206 C201.47 206 187.94 206 174 206 C172.52466797 200.59173828 172.52466797 200.59173828 171.01953125 195.07421875 C169.80528268 190.6293547 168.58986047 186.18481222 167.37403488 181.74037933 C167.00097582 180.37653667 166.6280021 179.01267065 166.25511551 177.64878082 C161.29925351 159.52241861 156.28805941 141.41262911 151.1953125 123.32421875 C150.70996779 121.59896133 150.22465171 119.87369587 149.73936462 118.14842224 C147.59908534 110.54169315 145.455756 102.9358692 143.30080032 95.33328342 C142.40632542 92.17387946 141.51598835 89.01331961 140.62662888 85.85247231 C140.21015305 84.37604053 139.79180493 82.90013547 139.37147903 81.42479515 C138.79556538 79.40282656 138.22602908 77.37916428 137.65795898 75.35498047 C137.33617172 74.21850067 137.01438446 73.08202087 136.68284607 71.91110229 C136 69 136 69 136 65 C135.01 65 134.02 65 133 65 C132.82616161 65.922835 132.82616161 65.922835 132.64881134 66.86431313 C131.51627279 72.71970874 130.15260634 78.45139292 128.54492188 84.19287109 C128.30709991 85.05334045 128.06927795 85.91380981 127.82424927 86.800354 C127.04246569 89.62566507 126.25564202 92.44954537 125.46875 95.2734375 C124.91232913 97.28031997 124.3562239 99.28728999 123.80041504 101.29434204 C122.33441961 106.5848047 120.86414028 111.87406746 119.39294434 117.16308594 C117.93386206 122.4113939 116.47879744 127.66081511 115.0234375 132.91015625 C113.03766938 140.07153284 111.04947427 147.23222667 109.05810547 154.39204788 C106.92955521 162.04518712 104.80458865 169.69923309 102.69686127 177.35813713 C101.75785273 180.77016553 100.81663837 184.18158373 99.87532043 187.59297562 C99.44100161 189.1697092 99.00786675 190.74676944 98.57597351 192.32416916 C97.9904357 194.46254019 97.40095511 196.59978595 96.81054688 198.73681641 C96.48276245 199.93029694 96.15497803 201.12377747 95.81726074 202.35342407 C95 205 95 205 94 206 C91.04294679 206.08868299 88.10934944 206.11520296 85.15234375 206.09765625 C83.82270348 206.09553383 83.82270348 206.09553383 82.46620178 206.09336853 C79.62326746 206.08775215 76.78041069 206.07519691 73.9375 206.0625 C72.01497509 206.05748711 70.09244896 206.05292384 68.16992188 206.04882812 C63.44658451 206.03777741 58.72330542 206.02050183 54 206 C47.65356144 183.31857366 41.62409136 160.55777622 35.63827515 137.7789917 C33.26933686 128.76602024 30.89623389 119.75414385 28.5234375 110.7421875 C28.25574806 109.72523552 27.98805862 108.70828354 27.71225739 107.66051483 C23.93793712 93.32362305 20.14365564 78.99216346 16.32977676 64.66574478 C15.54794008 61.72866241 14.76655892 58.79145923 13.98532104 55.85421753 C11.76412417 47.50394042 9.54171819 39.15400252 7.31142235 30.80615044 C6.40611355 27.41466992 5.50379264 24.02239976 4.60227585 20.62990952 C4.18413241 19.05910769 3.76466741 17.48865699 3.34379959 15.91858292 C2.77203952 13.7851476 2.20480069 11.65056033 1.63867188 9.515625 C1.32023315 8.32227539 1.00179443 7.12892578 0.67370605 5.89941406 C0 3 0 3 0 0 Z " fill="#FE0000" transform="translate(121,83)"/>
<path d="M0 0 C121.61869048 0 121.61869048 0 142.8984375 19.73828125 C154.72638905 32.46761944 159.82089026 50.73151176 159.28515625 67.875 C157.68394727 85.42249566 152.62106546 100.93793798 139.4765625 113.390625 C127.90972222 123 127.90972222 123 122 123 C132.20681176 143.71579887 142.70318009 164.3389474 153.93066406 184.52197266 C157.849262 191.59424664 161.37027041 198.74054082 165 206 C148.83 206 132.66 206 116 206 C113.89625 201.771875 111.7925 197.54375 109.625 193.1875 C105.49806706 184.91410003 101.34896306 176.65939495 97 168.5 C90.40770436 156.13173128 84.24296828 143.54714212 78 131 C60.18 130.505 60.18 130.505 42 130 C42 155.08 42 180.16 42 206 C28.14 206 14.28 206 0 206 C0 138.02 0 70.04 0 0 Z " fill="#FE0000" transform="translate(192,414)"/>
<path d="M0 0 C36 0 36 0 43.4375 7.375 C44.93334961 9.88427734 44.93334961 9.88427734 45.77734375 12.0859375 C48.02042627 17.29813935 51.07970401 21.50036244 54.5 26 C55.59805627 27.50728896 56.69183123 29.01770637 57.78125 30.53125 C58.3175 31.27375 58.85375 32.01625 59.40625 32.78125 C61.96089406 36.33771526 64.48123344 39.91807723 67 43.5 C73.25432876 52.39076572 79.6211553 61.19833001 86 70 C92.87894199 79.49171521 99.72738353 89.00097305 106.46972656 98.59033203 C110.75245983 104.67237865 115.10323607 110.70384174 119.47192383 116.72436523 C122.96861521 121.54880593 126.39598911 126.4092497 129.73046875 131.34765625 C130.91643213 133.14021093 130.91643213 133.14021093 133 134 C133 89.78 133 45.56 133 0 C146.53 0 160.06 0 174 0 C174 67.98 174 135.96 174 206 C162.12 206 150.24 206 138 206 C129.06800138 196.50975147 129.06800138 196.50975147 127.375 192.21875 C125.18587415 187.19620708 122.41894308 183.25081331 119 179 C114.03051311 172.52203548 109.42575174 165.82955662 104.85546875 159.06640625 C101.37054669 153.93467138 97.76119918 148.93223217 94 144 C89.04866775 137.50709201 84.42667874 130.8309284 79.85546875 124.06640625 C76.37054299 118.93466593 72.76112833 113.93229156 69 109 C64.56459331 103.18202377 60.35881514 97.24053257 56.25 91.1875 C49.393382 79.16785927 49.393382 79.16785927 40 70 C40 114.88 40 159.76 40 206 C26.8 206 13.6 206 0 206 C0 138.02 0 70.04 0 0 Z " fill="#FE0000" transform="translate(415,83)"/>
<path d="M0 0 C12.7571117 12.29284972 16.89208332 25.03557273 18.46875 42.37890625 C5.26875 42.37890625 -7.93125 42.37890625 -21.53125 42.37890625 C-22.52125 39.07890625 -23.51125 35.77890625 -24.53125 32.37890625 C-29.86072921 23.53977 -37.32271126 19.09580644 -47.03100586 15.9831543 C-51.47281114 14.90967826 -55.85595726 14.8917495 -60.40625 14.94140625 C-61.861521 14.95276611 -61.861521 14.95276611 -63.34619141 14.96435547 C-74.06026772 15.21117377 -82.64891757 17.86838195 -90.53125 25.37890625 C-95.09188082 31.22586884 -96.25261089 35.99882943 -95.53125 43.37890625 C-93.68654603 49.95066413 -90.04238448 53.63277562 -84.53125 57.37890625 C-73.58411836 63.51487812 -60.4792139 65.43935832 -48.34375 68.06982422 C0.93699296 78.75465197 0.93699296 78.75465197 14.46875 98.37890625 C19.72142109 107.91452453 21.84196226 116.74466499 21.78125 127.56640625 C21.77387817 129.10397583 21.77387817 129.10397583 21.76635742 130.67260742 C21.50974699 147.23911349 16.06940817 160.98730764 4.13671875 172.66015625 C-14.63083465 189.09231694 -38.44405719 193.78430494 -62.78125 193.75390625 C-63.79173401 193.75408752 -63.79173401 193.75408752 -64.82263184 193.75427246 C-75.862938 193.7261834 -85.99026688 192.69080777 -96.53125 189.37890625 C-98.08392578 188.91097656 -98.08392578 188.91097656 -99.66796875 188.43359375 C-111.02914916 184.66237905 -120.08067682 178.81457542 -128.53125 170.37890625 C-129.39556641 169.53199219 -129.39556641 169.53199219 -130.27734375 168.66796875 C-139.48157961 158.86605523 -143.53125 145.54901874 -143.53125 132.37890625 C-130.00125 132.37890625 -116.47125 132.37890625 -102.53125 132.37890625 C-100.88125 136.33890625 -99.23125 140.29890625 -97.53125 144.37890625 C-88.13397934 154.48809135 -76.9725863 158.77897617 -63.3359375 159.5625 C-50.6359416 159.81770086 -38.20512016 158.09020036 -28.2890625 149.41796875 C-23.29356145 144.0079033 -21.06034007 139.04738967 -21.27734375 131.5390625 C-21.73334369 127.65955531 -22.62584398 123.80579319 -24.53125 120.37890625 C-26.39977112 119.21797889 -26.39977112 119.21797889 -28.53125 118.37890625 C-30.45269689 117.17849716 -32.34546769 115.94027647 -34.23828125 114.6953125 C-41.58136008 110.47960966 -49.25970285 108.9000671 -57.46875 107.06640625 C-59.48827012 106.60428705 -61.50700306 106.13882443 -63.52575684 105.67337036 C-68.0220326 104.63725274 -72.5201604 103.60920763 -77.01904297 102.58447266 C-109.95465296 95.01811718 -109.95465296 95.01811718 -122.53125 83.37890625 C-123.16417969 82.81300781 -123.79710937 82.24710937 -124.44921875 81.6640625 C-135.23587229 71.52138827 -138.96333962 58.66377405 -139.5625 44.07421875 C-139.43965816 29.54817154 -135.39121839 16.21040193 -125.53125 5.37890625 C-124.94730469 4.7034375 -124.36335938 4.02796875 -123.76171875 3.33203125 C-94.62468688 -28.31998653 -31.50513669 -27.38167027 0 0 Z " fill="#FE0000" transform="translate(515.53125,429.62109375)"/>
<path d="M0 0 C7.363125 -0.0825 14.72625 -0.165 22.3125 -0.25 C24.61387939 -0.28641602 26.91525879 -0.32283203 29.28637695 -0.36035156 C31.14533562 -0.37205257 33.00430467 -0.38224103 34.86328125 -0.390625 C35.80022827 -0.41108887 36.73717529 -0.43155273 37.70251465 -0.45263672 C47.92260354 -0.45793416 57.63410484 2.69857657 65 10 C72.66556357 19.50939623 74.16692881 29.0233112 73 41 C71.44301906 48.65437937 68.03851597 54.97549898 62 60 C56.33518778 63.45226398 50.86420294 66.13075631 44.16137695 66.11352539 C43.16690552 66.11340454 42.17243408 66.11328369 41.14782715 66.11315918 C40.105177 66.10804321 39.06252686 66.10292725 37.98828125 66.09765625 C36.54793518 66.09614563 36.54793518 66.09614563 35.07849121 66.09460449 C31.48981533 66.08937051 27.90115647 66.07540925 24.3125 66.0625 C16.289375 66.041875 8.26625 66.02125 0 66 C0 44.22 0 22.44 0 0 Z " fill="#020000" transform="translate(234,447)"/>
</svg>
